{"title":"Mythbusters - S16 Season 16 - HDTV x264 [RLG]","uid":13767381,"size":4001527690,"categoryP":"video","categoryS":"tv_shows","magnet":"?xt=urn:btih:9ffdabe8a9c389e03be60464251bfc025e319775&amp;dn=Mythbusters+-+S16+Season+16+-+HDTV+x264+%5BRLG%5D&amp;tr=udp%3A%2F%2Ftracker.leechers-paradise.org%3A6969&amp;tr=udp%3A%2F%2Fzer0day.ch%3A1337&amp;tr=udp%3A%2F%2Fopen.demonii.com%3A1337&amp;tr=udp%3A%2F%2Ftracker.coppersurfer.tk%3A6969&amp;tr=udp%3A%2F%2Fexodus.desync.com%3A6969","seeders":1,"leechers":1,"uploader":"RedLegsGreaves","files":12,"time":1457258655,"description":"\n\r\n[b]INFO[/b]\r\n \nhttp://www.imdb.com/title/tt0383126/\r\n\r\nVideo\r\nID                          : 1\r\nFormat                      : AVC\r\nFormat/Info                 : Advanced Video Codec\r\nFormat profile              :   \r\nFormat settings, CABAC      : Yes\r\nFormat settings, ReFrames   : 5 frames\r\nCodec ID                    : avc1\r\nCodec ID/Info               : Advanced Video Coding\r\nDuration                    : 42mn 32s\r\nBit rate                    : 976 Kbps\r\nMaximum bit rate            : 5 423 Kbps\r\nWidth                       : 720 pixels\r\nHeight                      : 404 pixels\r\nDisplay aspect ratio        : 16:9\r\nFrame rate mode             : Constant\r\nFrame rate                  : 25.000 fps\r\nColor space                 : YUV\r\nChroma subsampling          : 4:2:0\r\nBit depth                   : 8 bits\r\nScan type                   : Progressive\r\nBits/(Pixel*Frame)          : 0.134\r\nStream size                 : 297 MiB (88%)\r\nWriting library             : x264 core 148 r2638 7599210\r\nEncoding settings           : cabac=1 / ref=5 / deblock=1:0:0 / analyse=0x3:0x113 / me=umh / subme=8 / psy=1 / psy_rd=1.00:0.00 / mixed_ref=1 / me_range=16 / chroma_me=1 / trellis=1 / 8x8dct=1 / cqm=0 / deadzone=21,11 / fast_pskip=1 / chroma_qp_offset=-2 / threads=12 / lookahead_threads=2 / sliced_threads=0 / nr=0 / decimate=1 / interlaced=0 / bluray_compat=0 / constrained_intra=0 / bframes=3 / b_pyramid=2 / b_adapt=2 / b_bias=0 / direct=3 / weightb=1 / open_gop=0 / weightp=2 / keyint=250 / keyint_min=25 / scenecut=40 / intra_refresh=0 / rc_lookahead=50 / rc=crf / mbtree=1 / crf=22.0 / qcomp=0.60 / qpmin=0 / qpmax=69 / qpstep=4 / ip_ratio=1.40 / aq=1:1.00\r\nEncoded date                : UTC 2016-01-03 02:55:25\r\nTagged date                 : UTC 2016-01-03 02:55:50\r\nColor range                 : Limited\r\nMatrix coefficients         : BT.709\r\n\r\nAudio\r\nID                          : 2\r\nFormat                      : AAC\r\nFormat/Info                 : Advanced Audio Codec\r\nFormat profile              : LC\r\nCodec ID                    : 40\r\nDuration                    : 42mn 32s\r\nBit rate mode               : Variable\r\nBit rate                    : 132 Kbps\r\nMaximum bit rate            : 152 Kbps\r\nChannel(s)                  : 2 channels\r\nChannel positions           : Front: L R\r\nSampling rate               : 48.0 KHz\r\nFrame rate                  : 46.875 fps (1024 spf)\r\nCompression mode            : Lossy\r\nStream size                 : 40.4 MiB (12%)\r\nLanguage                    : English\r\nEncoded date                : UTC 2016-01-03 02:55:50\r\nTagged date                 : UTC 2016-01-03 02:55:50\r\n\r\n[b]Plot[/b]\r\n\r\n\r\nA weekly documentary in which two Hollywood special effects experts attempt to debunk urban legends by directly testing them.\r\nCreator: Peter Rees\r\nStars: Jamie Hyneman, Adam Savage, Robert Lee \r\n[b]Screenshots[/b]\r\n\r\n[IMG]http://lookpic.com/O/i2/673/0jqjR1wS.jpeg[/IMG]\r\n[IMG]http://lookpic.com/O/i2/623/6CyjGxYS.jpeg[/IMG]\r\n[IMG]http://lookpic.com/O/i2/839/Fk7QATSq.jpeg[/IMG]\r\n[IMG]http://lookpic.com/O/i2/595/BgqW6Abe.jpeg[/IMG][IMG]http://lookpic.com/O/i2/849/gp8zlAYv.jpeg[/IMG]\r\n\r\n[img]https://i.imgur.com/fLhfPWl.jpg[/img]","torrent":{"xt":"urn:btih:9ffdabe8a9c389e03be60464251bfc025e319775","amp;dn":"Mythbusters+-+S16+Season+16+-+HDTV+x264+%5BRLG%5D","amp;tr":["udp%3A%2F%2Ftracker.leechers-paradise.org%3A6969","udp%3A%2F%2Fzer0day.ch%3A1337","udp%3A%2F%2Fopen.demonii.com%3A1337","udp%3A%2F%2Ftracker.coppersurfer.tk%3A6969","udp%3A%2F%2Fexodus.desync.com%3A6969"],"infoHash":"9ffdabe8a9c389e03be60464251bfc025e319775","infoHashBuffer":{"type":"Buffer","data":[159,253,171,232,169,195,137,224,59,230,4,100,37,27,252,2,94,49,151,117]},"announce":[],"urlList":[]}}